HIERARCHY
ROOT Hips
{
    OFFSET 0.000000 0.000000 0.000000
    CHANNELS 6 Xposition Yposition Zposition Zrotation Xrotation Yrotation
    JOINT Spine
    {
        OFFSET -0.000000 14.517291 0.000000
        CHANNELS 3 Zrotation Xrotation Yrotation
        JOINT Spine1
        {
            OFFSET -0.000000 37.558300 0.000000
            CHANNELS 3 Zrotation Xrotation Yrotation
            JOINT Neck
            {
                OFFSET -0.000000 37.404057 3.400369
                CHANNELS 3 Zrotation Xrotation Yrotation
                JOINT Head
                {
                    OFFSET -0.000000 24.785618 -3.540803
                    CHANNELS 3 Zrotation Xrotation Yrotation
                    End Site
                    {
                        OFFSET -0.000000 35.408028 0.000000
                    }
                }
            }
            JOINT LeftShoulder
            {
                OFFSET 6.992933 33.973492 -0.192664
                CHANNELS 3 Zrotation Xrotation Yrotation
                JOINT LeftArm
                {
                    OFFSET 21.527611 0.000000 0.000000
                    CHANNELS 3 Zrotation Xrotation Yrotation
                    JOINT LeftForeArm
                    {
                        OFFSET 56.353916 0.000000 0.000000
                        CHANNELS 3 Zrotation Xrotation Yrotation
                        JOINT LeftHand
                        {
                            OFFSET 47.774071 0.000000 0.000000
                            CHANNELS 3 Zrotation Xrotation Yrotation
                            End Site
                            {
                                OFFSET 26.556021 0.000000 0.000000
                            }
                        }
                    }
                }
            }
            JOINT RightShoulder
            {
                OFFSET -7.065357 33.973492 -0.192664
                CHANNELS 3 Zrotation Xrotation Yrotation
                JOINT RightArm
                {
                    OFFSET -21.527611 0.000000 0.000000
                    CHANNELS 3 Zrotation Xrotation Yrotation
                    JOINT RightForeArm
                    {
                        OFFSET -56.353916 0.000000 0.000000
                        CHANNELS 3 Zrotation Xrotation Yrotation
                        JOINT RightHand
                        {
                            OFFSET -47.774071 0.000000 0.000000
                            CHANNELS 3 Zrotation Xrotation Yrotation
                            End Site
                            {
                                OFFSET -26.556021 0.000000 0.000000
                            }
                        }
                    }
                }
            }
        }
    }
    JOINT LeftUpLeg
    {
        OFFSET 17.704014 0.000000 0.000000
        CHANNELS 3 Zrotation Xrotation Yrotation
        JOINT LeftLeg
        {
            OFFSET -0.000000 -81.181816 0.000000
            CHANNELS 3 Zrotation Xrotation Yrotation
            JOINT LeftFoot
            {
                OFFSET -0.000000 -62.821102 0.000000
                CHANNELS 3 Zrotation Xrotation Yrotation
                JOINT LeftToeBase
                {
                    OFFSET -0.000000 -11.507608 26.556021
                    CHANNELS 3 Zrotation Xrotation Yrotation
                    End Site
                    {
                        OFFSET -0.000000 0.000000 7.081605
                    }
                }
            }
        }
    }
    JOINT RightUpLeg
    {
        OFFSET -17.704014 0.000000 0.000000
        CHANNELS 3 Zrotation Xrotation Yrotation
        JOINT RightLeg
        {
            OFFSET -0.000000 -81.181816 0.000000
            CHANNELS 3 Zrotation Xrotation Yrotation
            JOINT RightFoot
            {
                OFFSET -0.000000 -62.821102 0.000000
                CHANNELS 3 Zrotation Xrotation Yrotation
                JOINT RightToeBase
                {
                    OFFSET -0.000000 -11.507608 26.556021
                    CHANNELS 3 Zrotation Xrotation Yrotation
                    End Site
                    {
                        OFFSET -0.000000 0.000000 7.081605
                    }
                }
            }
        }
    }
}
MOTION
Frames:    9
Frame Time:    0.008333
35.260956    150.166656    -13.620395    5.140931    21.042089    -60.351570    -2.442820    5.086398    3.506411    0.389993    -0.930721    1.131339    19.881758    -8.001451    16.747849    -6.655554    14.316734    12.941022    21.460745    -9.712429    -16.564493    -8.921263    -26.182528    -48.075310    6.816771    -38.545471    -20.998220    -27.028416    -27.193193    -47.941017    -6.552186    0.874071    4.259640    35.719746    8.753876    79.517677    6.385921    -7.608117    103.864769    3.393032    -15.030344    20.078995    44.212711    -43.627075    15.256818    -30.143934    49.969898    -0.434465    4.894043    -17.214882    36.762737    0.000000    0.000000    0.000000    -10.505304    -11.660488    -6.862986    3.458934    8.020577    -4.656679    15.365422    2.429002    -10.392559    0.000000    0.000000    0.000000    
35.133980    150.272629    -13.900813    5.110960    20.893726    -60.343819    -2.369797    5.058041    3.516461    0.342300    -0.946953    1.135640    19.937943    -7.992593    16.753790    -6.701462    14.323788    12.935844    21.442518    -9.703393    -16.522274    -8.925247    -26.120607    -48.061241    6.756622    -38.559631    -20.959526    -27.081911    -27.197941    -47.944073    -6.539907    0.877502    4.225554    35.721287    8.745399    79.612419    6.367156    -7.614746    103.875069    3.380530    -15.018886    20.020615    44.077126    -43.413460    15.154870    -29.896242    49.711632    -0.666995    4.712870    -17.086609    36.761375    0.000000    0.000000    0.000000    -10.525772    -11.610466    -6.823261    3.483716    8.096060    -4.672291    15.298567    2.313600    -10.307573    0.000000    0.000000    0.000000    
35.001354    150.378677    -14.164525    5.070325    20.721651    -60.295280    -2.307456    4.999711    3.515207    0.343109    -0.917606    1.136531    19.800777    -7.967625    16.689573    -6.564983    14.272788    12.903083    21.374474    -9.662593    -16.552334    -8.840480    -26.026428    -47.976982    6.771579    -38.632469    -20.908272    -27.050840    -27.304787    -47.903347    -6.599732    0.848177    4.222055    35.802574    8.709704    79.620277    6.367589    -7.577699    103.852020    3.411319    -14.972456    20.096125    43.876816    -43.210430    14.993849    -29.654247    49.451775    -0.861802    4.534548    -16.944527    36.742306    0.000000    0.000000    0.000000    -10.571377    -11.530448    -6.870659    3.494850    8.185373    -4.628720    15.256284    2.192692    -10.218370    0.000000    0.000000    0.000000    
34.866386    150.487396    -14.455676    5.049350    20.572384    -60.283882    -4.892861    5.390916    5.197194    4.819877    -2.004202    1.735671    18.639925    -8.609036    15.704178    -7.242158    15.062341    12.072261    19.768959    -9.711152    -18.477240    -10.131612    -26.734089    -48.524574    6.558326    -38.170158    -21.099150    -26.645781    -27.064436    -47.556858    -8.198442    1.264763    1.522387    34.900406    9.150835    79.908356    6.132949    -8.359147    104.457855    3.545440    -15.510721    19.842724    43.741997    -42.999432    14.876684    -29.430735    49.168438    -1.022432    4.286668    -16.868595    36.742004    0.000000    0.000000    0.000000    -10.587520    -11.506053    -6.869113    3.494801    8.308859    -4.548564    15.230024    2.034895    -10.196130    0.000000    0.000000    0.000000    
34.719666    150.602341    -14.739694    4.986362    20.377548    -60.253170    -2.219213    4.929990    3.536175    0.345376    -0.960708    1.145398    19.890348    -7.924388    16.657642    -6.643729    14.327024    12.859242    21.350290    -9.568487    -16.600971    -8.840479    -25.903198    -47.852234    6.750092    -38.658154    -20.862602    -27.020767    -27.361706    -47.868317    -6.604336    0.845841    4.210748    35.811974    8.690535    79.609108    6.327811    -7.597796    103.914879    3.399643    -14.953687    20.093483    43.521301    -42.747700    14.725291    -29.117416    48.902184    -1.259220    4.112058    -16.672108    36.666576    0.000000    0.000000    0.000000    -10.619398    -11.419456    -6.879254    3.484564    8.429210    -4.497757    15.190075    1.901160    -10.108461    0.000000    0.000000    0.000000    
34.599815    150.716934    -15.050056    4.977587    20.220009    -60.236240    -4.756518    5.308104    5.167315    4.762916    -2.011327    1.728392    18.632624    -8.560575    15.663435    -7.193099    15.035103    12.037988    19.723541    -9.626943    -18.493809    -10.051146    -26.584326    -48.364353    6.569615    -38.219505    -21.052847    -26.666096    -27.121582    -47.520622    -8.205207    1.235466    1.530822    34.934765    9.130805    79.901985    6.125071    -8.340934    104.486053    3.563089    -15.481665    19.923607    43.351719    -42.561329    14.658272    -28.767887    48.648357    -1.534795    3.875300    -16.519032    36.617695    0.000000    0.000000    0.000000    -10.654952    -11.415024    -6.846397    3.505992    8.570748    -4.482000    15.138110    1.751104    -10.042150    0.000000    0.000000    0.000000    
34.466854    150.829483    -15.352999    4.951668    20.027912    -60.219948    -2.129947    4.858210    3.518302    0.375349    -1.059271    1.141914    19.809458    -7.888937    16.593145    -6.541565    14.332511    12.818114    21.256027    -9.424801    -16.629105    -8.781556    -25.770567    -47.736496    6.808554    -38.704559    -20.805223    -27.072863    -27.389957    -47.853344    -6.645060    0.913254    4.164702    35.786186    8.688521    79.638184    6.272911    -7.641416    103.944511    3.477579    -14.915604    20.197674    43.143730    -42.331665    14.523444    -28.475393    48.358242    -1.756698    3.598448    -16.427774    36.630615    0.000000    0.000000    0.000000    -10.710261    -11.390865    -6.852225    3.516306    8.744390    -4.423211    15.090508    1.568537    -9.979149    0.000000    0.000000    0.000000    
34.326965    150.941284    -15.678200    4.910132    19.845459    -60.190182    -4.629458    5.201491    5.107054    4.738394    -2.011079    1.711363    18.620983    -8.458683    15.638075    -7.177748    14.963756    12.026408    19.664848    -9.479985    -18.507832    -9.939660    -26.429283    -48.206097    6.684983    -38.290627    -20.975292    -26.708107    -27.162510    -47.548428    -8.224598    1.295502    1.555154    34.914898    9.080318    79.915527    6.130654    -8.386582    104.515160    3.629302    -15.525355    19.943956    42.960724    -42.101013    14.386028    -28.194525    48.072960    -2.005562    3.430162    -16.213881    36.591244    0.000000    0.000000    0.000000    -10.736423    -11.373988    -6.882549    3.499112    8.952494    -4.376384    15.056357    1.387618    -9.853308    0.000000    0.000000    0.000000    
34.195053    151.048355    -15.995005    4.886332    19.691742    -60.188911    -1.979146    4.734292    3.492136    0.349828    -1.063520    1.135869    19.901649    -7.867558    16.565374    -6.601677    14.360310    12.772937    21.233122    -9.351725    -16.645866    -8.786123    -25.630482    -47.641644    6.873059    -38.743244    -20.783781    -27.081366    -27.419134    -47.860538    -6.605814    0.941249    4.127592    35.750153    8.651886    79.609871    6.257285    -7.625114    103.997482    3.444654    -14.893038    20.207525    42.818413    -41.888809    14.288165    -27.927357    47.804379    -2.215064    3.181089    -16.120785    36.632008    0.000000    0.000000    0.000000    -10.743526    -11.397305    -6.859271    3.484114    9.166713    -4.306812    15.016519    1.196225    -9.800387    0.000000    0.000000    0.000000    
